<?xml version="1.0" standalone="no"?>
<!DOCTYPE svg PUBLIC "-//W3C//DTD SVG 20010904//EN"
 "http://www.w3.org/TR/2001/REC-SVG-20010904/DTD/svg10.dtd">
<svg version="1.0" xmlns="http://www.w3.org/2000/svg"
 width="192.000000pt" height="192.000000pt" viewBox="0 0 192.000000 192.000000"
 preserveAspectRatio="xMidYMid meet">
<metadata>
Created by potrace 1.14, written by Peter Selinger 2001-2017
</metadata>
<g transform="translate(0.000000,192.000000) scale(0.100000,-0.100000)"
fill="#000000" stroke="none">
<path d="M849 1836 c-2 -2 -22 -6 -45 -9 -97 -14 -244 -75 -353 -149 -72 -49
-192 -177 -238 -253 -22 -39 -41 -73 -42 -78 0 -4 -7 -20 -15 -35 -38 -73 -63
-165 -70 -255 -2 -20 -5 -39 -7 -42 -8 -7 9 -194 21 -246 7 -27 10 -56 6 -64
-3 -8 0 -14 6 -12 6 1 15 -14 20 -33 6 -19 14 -41 20 -47 6 -7 8 -20 4 -28 -4
-11 -2 -14 6 -9 8 5 9 1 4 -12 -4 -10 -4 -15 0 -11 4 4 24 -20 44 -53 20 -33
45 -69 54 -79 11 -12 15 -25 10 -33 -4 -7 -3 -10 1 -5 11 10 46 -23 38 -36 -3
-5 -1 -7 5 -4 5 4 22 -6 35 -23 14 -16 31 -30 37 -30 6 0 8 -4 5 -10 -3 -5 -1
-10 5 -10 6 0 40 -20 76 -45 35 -25 64 -42 64 -39 0 3 13 -4 29 -15 15 -11 31
-18 35 -14 3 3 6 1 6 -5 0 -7 3 -11 8 -10 4 1 18 -3 32 -9 14 -5 59 -18 100
-28 41 -9 83 -21 92 -26 10 -5 20 -5 23 1 4 6 11 7 17 4 14 -9 158 -11 158 -3
0 4 14 5 30 4 17 -1 32 1 35 5 2 4 22 6 44 6 22 -1 37 2 35 6 -5 8 -2 9 34 12
9 1 23 5 30 9 6 5 17 5 24 1 6 -4 8 -3 4 4 -8 13 29 26 45 16 7 -4 9 -3 6 3
-3 5 21 22 53 39 33 16 60 32 60 37 0 4 6 7 13 7 6 0 29 16 50 35 21 19 40 35
42 35 16 0 136 145 172 209 15 25 31 49 36 52 5 3 8 8 6 10 -7 11 24 78 33 73
7 -4 8 -2 4 5 -4 6 -1 33 8 59 22 68 39 173 38 244 0 85 -21 222 -42 273 -4
11 -18 46 -31 79 -50 131 -189 300 -314 383 -152 101 -286 143 -471 148 -73 2
-133 2 -135 1z"/>
<path d="M975 60 c-3 -5 -1 -10 4 -10 6 0 11 5 11 10 0 6 -2 10 -4 10 -3 0 -8
-4 -11 -10z"/>
</g>
</svg>
